<mxfile host="app.diagrams.net" modified="2021-03-21T05:50:15.974Z" agent="5.0 (Windows NT 10.0; Win64; x64) AppleWebKit/537.36 (KHTML, like Gecko) Chrome/89.0.4389.90 Safari/537.36 Edg/89.0.774.57" etag="28pqgXl87Em5EbZAFKt1" version="14.4.9" type="github">
  <diagram name="Page-1" id="7e0a89b8-554c-2b80-1dc8-d5c74ca68de4">
    <mxGraphModel dx="1178" dy="632" grid="1" gridSize="10" guides="1" tooltips="1" connect="1" arrows="1" fold="1" page="1" pageScale="1" pageWidth="1100" pageHeight="850" background="#ffffff" math="0" shadow="0">
      <root>
        <mxCell id="0" />
        <mxCell id="1" parent="0" />
        <mxCell id="6FVeG3qf2PXjFUYHvQUK-44" value="&lt;font face=&quot;Times New Roman&quot;&gt;&lt;i&gt;&lt;b&gt;N2&lt;/b&gt;&lt;/i&gt;&lt;/font&gt;" style="text;html=1;strokeColor=none;fillColor=none;align=center;verticalAlign=middle;whiteSpace=wrap;rounded=0;" parent="1" vertex="1">
          <mxGeometry x="520" y="307" width="40" height="20" as="geometry" />
        </mxCell>
        <mxCell id="7kpP1bOEezpdBMnWueCM-2" value="" style="pointerEvents=1;verticalLabelPosition=bottom;shadow=0;dashed=0;align=center;html=1;verticalAlign=top;shape=mxgraph.electrical.inductors.inductor_3;direction=south;" vertex="1" parent="1">
          <mxGeometry x="490" y="281" width="7" height="72" as="geometry" />
        </mxCell>
        <mxCell id="7kpP1bOEezpdBMnWueCM-3" value="" style="pointerEvents=1;verticalLabelPosition=bottom;shadow=0;dashed=0;align=center;html=1;verticalAlign=top;shape=mxgraph.electrical.inductors.magnetic_core;direction=east;" vertex="1" parent="1">
          <mxGeometry x="506.5" y="279.5" width="3" height="150.5" as="geometry" />
        </mxCell>
        <mxCell id="7kpP1bOEezpdBMnWueCM-4" value="" style="pointerEvents=1;verticalLabelPosition=bottom;shadow=0;dashed=0;align=center;html=1;verticalAlign=top;shape=mxgraph.electrical.inductors.inductor_3;direction=south;" vertex="1" parent="1">
          <mxGeometry x="490" y="353" width="7" height="72" as="geometry" />
        </mxCell>
        <mxCell id="7kpP1bOEezpdBMnWueCM-29" style="edgeStyle=orthogonalEdgeStyle;rounded=0;orthogonalLoop=1;jettySize=auto;html=1;exitX=1;exitY=1;exitDx=0;exitDy=0;exitPerimeter=0;entryX=0;entryY=0.5;entryDx=0;entryDy=0;entryPerimeter=0;endArrow=none;endFill=0;endSize=5;strokeColor=#000000;strokeWidth=1;" edge="1" parent="1" source="7kpP1bOEezpdBMnWueCM-5" target="7kpP1bOEezpdBMnWueCM-26">
          <mxGeometry relative="1" as="geometry" />
        </mxCell>
        <mxCell id="7kpP1bOEezpdBMnWueCM-5" value="" style="pointerEvents=1;verticalLabelPosition=bottom;shadow=0;dashed=0;align=center;html=1;verticalAlign=top;shape=mxgraph.electrical.inductors.inductor_3;direction=north;" vertex="1" parent="1">
          <mxGeometry x="520" y="281" width="7" height="72" as="geometry" />
        </mxCell>
        <mxCell id="7kpP1bOEezpdBMnWueCM-28" style="edgeStyle=orthogonalEdgeStyle;rounded=0;orthogonalLoop=1;jettySize=auto;html=1;exitX=0;exitY=1;exitDx=0;exitDy=0;exitPerimeter=0;entryX=0;entryY=0.5;entryDx=0;entryDy=0;entryPerimeter=0;endArrow=none;endFill=0;endSize=5;strokeColor=#000000;strokeWidth=1;" edge="1" parent="1" source="7kpP1bOEezpdBMnWueCM-6" target="7kpP1bOEezpdBMnWueCM-27">
          <mxGeometry relative="1" as="geometry" />
        </mxCell>
        <mxCell id="7kpP1bOEezpdBMnWueCM-30" style="edgeStyle=orthogonalEdgeStyle;rounded=0;orthogonalLoop=1;jettySize=auto;html=1;exitX=1;exitY=1;exitDx=0;exitDy=0;exitPerimeter=0;endArrow=none;endFill=0;endSize=5;strokeColor=#000000;strokeWidth=1;entryX=1;entryY=0.5;entryDx=0;entryDy=0;entryPerimeter=0;" edge="1" parent="1" source="7kpP1bOEezpdBMnWueCM-6" target="7kpP1bOEezpdBMnWueCM-59">
          <mxGeometry relative="1" as="geometry">
            <mxPoint x="650" y="460" as="targetPoint" />
            <Array as="points">
              <mxPoint x="550" y="353" />
              <mxPoint x="550" y="450" />
              <mxPoint x="670" y="450" />
            </Array>
          </mxGeometry>
        </mxCell>
        <mxCell id="7kpP1bOEezpdBMnWueCM-6" value="" style="pointerEvents=1;verticalLabelPosition=bottom;shadow=0;dashed=0;align=center;html=1;verticalAlign=top;shape=mxgraph.electrical.inductors.inductor_3;direction=north;" vertex="1" parent="1">
          <mxGeometry x="520" y="353" width="7" height="72" as="geometry" />
        </mxCell>
        <mxCell id="7kpP1bOEezpdBMnWueCM-7" value="&lt;font face=&quot;Times New Roman&quot; style=&quot;font-size: 20px&quot;&gt;*&lt;/font&gt;" style="text;html=1;strokeColor=none;fillColor=none;align=center;verticalAlign=middle;whiteSpace=wrap;rounded=0;" vertex="1" parent="1">
          <mxGeometry x="465" y="291" width="40" height="20" as="geometry" />
        </mxCell>
        <mxCell id="7kpP1bOEezpdBMnWueCM-8" value="&lt;font face=&quot;Times New Roman&quot; style=&quot;font-size: 20px&quot;&gt;*&lt;/font&gt;" style="text;html=1;strokeColor=none;fillColor=none;align=center;verticalAlign=middle;whiteSpace=wrap;rounded=0;" vertex="1" parent="1">
          <mxGeometry x="466" y="364" width="40" height="20" as="geometry" />
        </mxCell>
        <mxCell id="7kpP1bOEezpdBMnWueCM-9" value="&lt;font face=&quot;Times New Roman&quot; style=&quot;font-size: 20px&quot;&gt;*&lt;/font&gt;" style="text;html=1;strokeColor=none;fillColor=none;align=center;verticalAlign=middle;whiteSpace=wrap;rounded=0;" vertex="1" parent="1">
          <mxGeometry x="511" y="291" width="40" height="20" as="geometry" />
        </mxCell>
        <mxCell id="7kpP1bOEezpdBMnWueCM-10" value="&lt;font face=&quot;Times New Roman&quot; style=&quot;font-size: 20px&quot;&gt;*&lt;/font&gt;" style="text;html=1;strokeColor=none;fillColor=none;align=center;verticalAlign=middle;whiteSpace=wrap;rounded=0;" vertex="1" parent="1">
          <mxGeometry x="512" y="364" width="40" height="20" as="geometry" />
        </mxCell>
        <mxCell id="7kpP1bOEezpdBMnWueCM-20" style="edgeStyle=orthogonalEdgeStyle;rounded=0;orthogonalLoop=1;jettySize=auto;html=1;entryX=0.553;entryY=0.497;entryDx=0;entryDy=0;entryPerimeter=0;endArrow=none;endFill=0;endSize=5;strokeColor=#000000;strokeWidth=1;" edge="1" parent="1" source="7kpP1bOEezpdBMnWueCM-11" target="7kpP1bOEezpdBMnWueCM-16">
          <mxGeometry relative="1" as="geometry" />
        </mxCell>
        <mxCell id="7kpP1bOEezpdBMnWueCM-11" value="" style="ellipse;whiteSpace=wrap;html=1;aspect=fixed;shadow=0;dashed=0;strokeWidth=2;" vertex="1" parent="1">
          <mxGeometry x="489" y="351" width="2" height="2" as="geometry" />
        </mxCell>
        <mxCell id="7kpP1bOEezpdBMnWueCM-49" style="edgeStyle=orthogonalEdgeStyle;rounded=0;orthogonalLoop=1;jettySize=auto;html=1;exitX=0;exitY=0.5;exitDx=0;exitDy=0;exitPerimeter=0;endArrow=none;endFill=0;endSize=5;strokeColor=#000000;strokeWidth=1;" edge="1" parent="1" source="7kpP1bOEezpdBMnWueCM-16" target="7kpP1bOEezpdBMnWueCM-50">
          <mxGeometry relative="1" as="geometry">
            <mxPoint x="380.0000000000001" y="550.5369127516778" as="targetPoint" />
            <Array as="points">
              <mxPoint x="321" y="520" />
              <mxPoint x="434" y="520" />
            </Array>
          </mxGeometry>
        </mxCell>
        <mxCell id="7kpP1bOEezpdBMnWueCM-16" value="" style="verticalLabelPosition=bottom;shadow=0;dashed=0;align=center;fillColor=#000000;html=1;verticalAlign=top;strokeWidth=1;shape=mxgraph.electrical.miscellaneous.monocell_battery;rounded=1;comic=0;labelBackgroundColor=none;fontFamily=Verdana;fontSize=12;flipH=1;direction=north;" vertex="1" parent="1">
          <mxGeometry x="301.5" y="410" width="40" height="60" as="geometry" />
        </mxCell>
        <mxCell id="7kpP1bOEezpdBMnWueCM-41" style="edgeStyle=orthogonalEdgeStyle;rounded=0;orthogonalLoop=1;jettySize=auto;html=1;exitX=0.7;exitY=0;exitDx=0;exitDy=0;exitPerimeter=0;entryX=0;entryY=1;entryDx=0;entryDy=0;entryPerimeter=0;endArrow=none;endFill=0;endSize=5;strokeColor=#000000;strokeWidth=1;" edge="1" parent="1" source="7kpP1bOEezpdBMnWueCM-22" target="7kpP1bOEezpdBMnWueCM-2">
          <mxGeometry relative="1" as="geometry">
            <Array as="points">
              <mxPoint x="415" y="281" />
            </Array>
          </mxGeometry>
        </mxCell>
        <mxCell id="7kpP1bOEezpdBMnWueCM-48" style="edgeStyle=orthogonalEdgeStyle;rounded=0;orthogonalLoop=1;jettySize=auto;html=1;exitX=0.7;exitY=1;exitDx=0;exitDy=0;exitPerimeter=0;entryX=0.7;entryY=1;entryDx=0;entryDy=0;entryPerimeter=0;endArrow=none;endFill=0;endSize=5;strokeColor=#000000;strokeWidth=1;" edge="1" parent="1" source="7kpP1bOEezpdBMnWueCM-22" target="7kpP1bOEezpdBMnWueCM-24">
          <mxGeometry relative="1" as="geometry">
            <Array as="points">
              <mxPoint x="415" y="490" />
              <mxPoint x="453" y="490" />
            </Array>
          </mxGeometry>
        </mxCell>
        <mxCell id="7kpP1bOEezpdBMnWueCM-22" value="" style="verticalLabelPosition=bottom;shadow=0;dashed=0;align=center;html=1;verticalAlign=top;shape=mxgraph.electrical.mosfets1.n-channel_mosfet_1;strokeWidth=1;" vertex="1" parent="1">
          <mxGeometry x="388" y="437" width="38" height="40" as="geometry" />
        </mxCell>
        <mxCell id="7kpP1bOEezpdBMnWueCM-25" style="edgeStyle=orthogonalEdgeStyle;rounded=0;orthogonalLoop=1;jettySize=auto;html=1;exitX=0.7;exitY=0;exitDx=0;exitDy=0;exitPerimeter=0;entryX=1;entryY=1;entryDx=0;entryDy=0;entryPerimeter=0;endArrow=none;endFill=0;endSize=5;strokeColor=#000000;strokeWidth=1;" edge="1" parent="1" source="7kpP1bOEezpdBMnWueCM-24" target="7kpP1bOEezpdBMnWueCM-4">
          <mxGeometry relative="1" as="geometry">
            <Array as="points">
              <mxPoint x="453" y="425" />
            </Array>
          </mxGeometry>
        </mxCell>
        <mxCell id="7kpP1bOEezpdBMnWueCM-24" value="" style="verticalLabelPosition=bottom;shadow=0;dashed=0;align=center;html=1;verticalAlign=top;shape=mxgraph.electrical.mosfets1.n-channel_mosfet_1;strokeWidth=1;direction=east;flipH=1;" vertex="1" parent="1">
          <mxGeometry x="441.5" y="436" width="38" height="40" as="geometry" />
        </mxCell>
        <mxCell id="7kpP1bOEezpdBMnWueCM-32" style="edgeStyle=orthogonalEdgeStyle;rounded=0;orthogonalLoop=1;jettySize=auto;html=1;exitX=1;exitY=0.5;exitDx=0;exitDy=0;exitPerimeter=0;endArrow=none;endFill=0;endSize=5;strokeColor=#000000;strokeWidth=1;entryX=1;entryY=0.5;entryDx=0;entryDy=0;entryPerimeter=0;" edge="1" parent="1" source="7kpP1bOEezpdBMnWueCM-26" target="7kpP1bOEezpdBMnWueCM-27">
          <mxGeometry relative="1" as="geometry">
            <mxPoint x="620" y="280.94444444444446" as="targetPoint" />
          </mxGeometry>
        </mxCell>
        <mxCell id="7kpP1bOEezpdBMnWueCM-26" value="" style="pointerEvents=1;fillColor=strokeColor;verticalLabelPosition=bottom;shadow=0;dashed=0;align=center;html=1;verticalAlign=top;shape=mxgraph.electrical.diodes.diode;" vertex="1" parent="1">
          <mxGeometry x="560" y="271" width="38" height="20" as="geometry" />
        </mxCell>
        <mxCell id="7kpP1bOEezpdBMnWueCM-27" value="" style="pointerEvents=1;fillColor=strokeColor;verticalLabelPosition=bottom;shadow=0;dashed=0;align=center;html=1;verticalAlign=top;shape=mxgraph.electrical.diodes.diode;" vertex="1" parent="1">
          <mxGeometry x="560" y="415" width="38" height="20" as="geometry" />
        </mxCell>
        <mxCell id="7kpP1bOEezpdBMnWueCM-43" style="edgeStyle=orthogonalEdgeStyle;rounded=0;orthogonalLoop=1;jettySize=auto;html=1;endArrow=classic;endFill=1;endSize=5;strokeColor=#000000;strokeWidth=1;" edge="1" parent="1" source="7kpP1bOEezpdBMnWueCM-37">
          <mxGeometry relative="1" as="geometry">
            <mxPoint x="388.5" y="466" as="targetPoint" />
            <Array as="points">
              <mxPoint x="380.5" y="466" />
              <mxPoint x="380.5" y="466" />
            </Array>
          </mxGeometry>
        </mxCell>
        <mxCell id="7kpP1bOEezpdBMnWueCM-37" value="" style="ellipse;whiteSpace=wrap;html=1;aspect=fixed;" vertex="1" parent="1">
          <mxGeometry x="350" y="450" width="30" height="30" as="geometry" />
        </mxCell>
        <mxCell id="7kpP1bOEezpdBMnWueCM-38" value="" style="pointerEvents=1;verticalLabelPosition=bottom;shadow=0;dashed=0;align=center;html=1;verticalAlign=top;shape=mxgraph.electrical.waveforms.pulse_1;" vertex="1" parent="1">
          <mxGeometry x="356" y="460" width="18" height="10" as="geometry" />
        </mxCell>
        <mxCell id="7kpP1bOEezpdBMnWueCM-45" style="edgeStyle=orthogonalEdgeStyle;rounded=0;orthogonalLoop=1;jettySize=auto;html=1;endArrow=classic;endFill=1;endSize=5;strokeColor=#000000;strokeWidth=1;" edge="1" parent="1" source="7kpP1bOEezpdBMnWueCM-39">
          <mxGeometry relative="1" as="geometry">
            <mxPoint x="480" y="465" as="targetPoint" />
            <Array as="points">
              <mxPoint x="480" y="465" />
              <mxPoint x="480" y="465" />
            </Array>
          </mxGeometry>
        </mxCell>
        <mxCell id="7kpP1bOEezpdBMnWueCM-39" value="" style="ellipse;whiteSpace=wrap;html=1;aspect=fixed;" vertex="1" parent="1">
          <mxGeometry x="489" y="450" width="30" height="30" as="geometry" />
        </mxCell>
        <mxCell id="7kpP1bOEezpdBMnWueCM-40" value="" style="pointerEvents=1;verticalLabelPosition=bottom;shadow=0;dashed=0;align=center;html=1;verticalAlign=top;shape=mxgraph.electrical.waveforms.pulse_1;direction=west;" vertex="1" parent="1">
          <mxGeometry x="495" y="460" width="18" height="10" as="geometry" />
        </mxCell>
        <mxCell id="7kpP1bOEezpdBMnWueCM-50" value="" style="ellipse;whiteSpace=wrap;html=1;aspect=fixed;shadow=0;dashed=0;strokeWidth=2;" vertex="1" parent="1">
          <mxGeometry x="433" y="489" width="2" height="2" as="geometry" />
        </mxCell>
        <mxCell id="7kpP1bOEezpdBMnWueCM-56" value="" style="ellipse;whiteSpace=wrap;html=1;aspect=fixed;shadow=0;dashed=0;strokeWidth=2;" vertex="1" parent="1">
          <mxGeometry x="616.7" y="280" width="2" height="2" as="geometry" />
        </mxCell>
        <mxCell id="7kpP1bOEezpdBMnWueCM-58" value="" style="pointerEvents=1;verticalLabelPosition=bottom;shadow=0;dashed=0;align=center;html=1;verticalAlign=top;shape=mxgraph.electrical.inductors.inductor_3;direction=west;" vertex="1" parent="1">
          <mxGeometry x="618.7" y="281" width="42.5" height="5.5" as="geometry" />
        </mxCell>
        <mxCell id="7kpP1bOEezpdBMnWueCM-60" style="edgeStyle=orthogonalEdgeStyle;rounded=0;orthogonalLoop=1;jettySize=auto;html=1;exitX=0;exitY=0.5;exitDx=0;exitDy=0;exitPerimeter=0;entryX=0;entryY=1;entryDx=0;entryDy=0;entryPerimeter=0;endArrow=none;endFill=0;endSize=5;strokeColor=#000000;strokeWidth=1;" edge="1" parent="1" source="7kpP1bOEezpdBMnWueCM-59" target="7kpP1bOEezpdBMnWueCM-58">
          <mxGeometry relative="1" as="geometry">
            <Array as="points">
              <mxPoint x="670" y="351" />
              <mxPoint x="670" y="281" />
            </Array>
          </mxGeometry>
        </mxCell>
        <mxCell id="7kpP1bOEezpdBMnWueCM-59" value="" style="pointerEvents=1;verticalLabelPosition=bottom;shadow=0;dashed=0;align=center;html=1;verticalAlign=top;shape=mxgraph.electrical.capacitors.capacitor_1;direction=south;" vertex="1" parent="1">
          <mxGeometry x="655" y="324.75" width="30" height="60" as="geometry" />
        </mxCell>
        <mxCell id="7kpP1bOEezpdBMnWueCM-62" style="edgeStyle=orthogonalEdgeStyle;rounded=0;orthogonalLoop=1;jettySize=auto;html=1;exitX=0;exitY=0.5;exitDx=0;exitDy=0;exitPerimeter=0;endArrow=none;endFill=0;endSize=5;strokeColor=#000000;strokeWidth=1;" edge="1" parent="1" source="7kpP1bOEezpdBMnWueCM-61">
          <mxGeometry relative="1" as="geometry">
            <mxPoint x="670" y="281" as="targetPoint" />
            <Array as="points">
              <mxPoint x="705" y="281" />
            </Array>
          </mxGeometry>
        </mxCell>
        <mxCell id="7kpP1bOEezpdBMnWueCM-63" style="edgeStyle=orthogonalEdgeStyle;rounded=0;orthogonalLoop=1;jettySize=auto;html=1;exitX=1;exitY=0.5;exitDx=0;exitDy=0;exitPerimeter=0;endArrow=none;endFill=0;endSize=5;strokeColor=#000000;strokeWidth=1;" edge="1" parent="1" source="7kpP1bOEezpdBMnWueCM-61">
          <mxGeometry relative="1" as="geometry">
            <mxPoint x="670" y="450.258064516129" as="targetPoint" />
            <Array as="points">
              <mxPoint x="705" y="450" />
              <mxPoint x="670" y="450" />
            </Array>
          </mxGeometry>
        </mxCell>
        <mxCell id="7kpP1bOEezpdBMnWueCM-61" value="" style="pointerEvents=1;verticalLabelPosition=bottom;shadow=0;dashed=0;align=center;html=1;verticalAlign=top;shape=mxgraph.electrical.resistors.resistor_2;strokeWidth=1;direction=south;" vertex="1" parent="1">
          <mxGeometry x="700" y="331.75" width="10" height="46" as="geometry" />
        </mxCell>
        <mxCell id="7kpP1bOEezpdBMnWueCM-64" value="&lt;font style=&quot;font-size: 18px&quot;&gt;V&lt;/font&gt;&lt;font style=&quot;font-size: 12px&quot;&gt;IN&lt;/font&gt;" style="text;html=1;align=center;verticalAlign=middle;resizable=0;points=[];autosize=1;" vertex="1" parent="1">
          <mxGeometry x="278.5" y="447" width="40" height="20" as="geometry" />
        </mxCell>
        <mxCell id="7kpP1bOEezpdBMnWueCM-65" value="&lt;font style=&quot;font-size: 18px&quot;&gt;V&lt;/font&gt;&lt;font style=&quot;font-size: 12px&quot;&gt;OUT&lt;/font&gt;" style="text;html=1;align=center;verticalAlign=middle;resizable=0;points=[];autosize=1;" vertex="1" parent="1">
          <mxGeometry x="670" y="260" width="50" height="20" as="geometry" />
        </mxCell>
        <mxCell id="7kpP1bOEezpdBMnWueCM-66" value="&lt;font face=&quot;Times New Roman&quot;&gt;&lt;i&gt;&lt;b&gt;N1&lt;/b&gt;&lt;/i&gt;&lt;/font&gt;" style="text;html=1;strokeColor=none;fillColor=none;align=center;verticalAlign=middle;whiteSpace=wrap;rounded=0;" vertex="1" parent="1">
          <mxGeometry x="457" y="307" width="40" height="20" as="geometry" />
        </mxCell>
        <mxCell id="7kpP1bOEezpdBMnWueCM-67" value="&lt;font face=&quot;Times New Roman&quot;&gt;&lt;i&gt;&lt;b&gt;N1&lt;/b&gt;&lt;/i&gt;&lt;/font&gt;" style="text;html=1;strokeColor=none;fillColor=none;align=center;verticalAlign=middle;whiteSpace=wrap;rounded=0;" vertex="1" parent="1">
          <mxGeometry x="457" y="379" width="40" height="20" as="geometry" />
        </mxCell>
        <mxCell id="7kpP1bOEezpdBMnWueCM-68" value="&lt;font face=&quot;Times New Roman&quot;&gt;&lt;i&gt;&lt;b&gt;N2&lt;/b&gt;&lt;/i&gt;&lt;/font&gt;" style="text;html=1;strokeColor=none;fillColor=none;align=center;verticalAlign=middle;whiteSpace=wrap;rounded=0;" vertex="1" parent="1">
          <mxGeometry x="520" y="379" width="40" height="20" as="geometry" />
        </mxCell>
      </root>
    </mxGraphModel>
  </diagram>
</mxfile>
